<svg width="535" height="136" viewBox="0 0 535 136" fill="none" xmlns="http://www.w3.org/2000/svg">
<path d="M91.54 0C102.56 0.86 111.45 9.85 112 20.92V90.98C111.4 102.28 102.28 111.37 90.95 111.91H21.05C9.75 111.37 0.57 102.27 0 90.98V20.81C0.58 9.92 9.55 0.71 20.46 0H91.55H91.54ZM20.11 11.51C15.42 11.68 11.69 15.51 11.49 20.17C11.58 44.42 11.31 68.69 11.63 92.93C12.38 97.23 15.86 100.17 20.19 100.44C27.77 100.93 35.85 100.07 43.49 100.44C49.74 100.25 55.99 99.6 62.05 98C87.01 91.39 99.13 71.73 100.42 46.72C100.21 38.07 101.04 28.87 100.53 20.26C100.23 15.28 96.71 11.76 91.73 11.46L20.12 11.5L20.11 11.51Z" fill="#4695D1"/>
<path d="M37.5 24.73C45.59 24.09 52.25 30.2 52.73 38.19V73.72C51.3 91.38 26.54 91.66 24.72 74.05V37.87C25.17 31.08 30.65 25.28 37.5 24.74V24.73Z" fill="#4695D1"/>
<path d="M72.05 24.73C79.79 24.12 86.75 29.85 87.27 37.65C87.49 40.98 87.6 47.9 86.69 50.95C83.04 63.29 65.66 64.36 60.49 52.6C58.87 48.91 59.04 42.16 59.27 38.08C59.65 31.17 65.06 25.28 72.05 24.73Z" fill="#4695D1"/>
<path d="M323.325 28.0492C342.093 27.0212 354.887 42.2396 352.33 60.5333C350.116 76.3843 336.312 85.8475 320.645 83.7035C288.504 79.3014 289.655 29.9032 323.325 28.0492ZM322.622 36.5898C303.239 38.3559 301.526 69.7328 319.714 74.8378C330.653 77.9044 340.582 71.3935 342.506 60.3751C344.826 47.0634 336.936 35.2894 322.631 36.5898H322.622Z" fill="#4796D1"/>
<path d="M148.533 78.7479C147.883 84.1956 139.975 84.4592 139.044 78.9939L139 33.2509C139.185 31.1245 140.731 29.3496 142.857 28.9894C149.983 29.3233 157.505 28.5501 164.578 28.9894C175.746 29.6835 182.344 39.0412 180.121 49.8576C178.83 56.1575 174.076 60.7002 167.723 61.7546L176.659 76.1295C178.636 79.9341 174.893 84.3537 170.799 82.6843C168.962 81.9374 168.163 80.0571 167.187 78.4579C164.042 73.3178 161.16 68.0019 157.988 62.8793H148.533V78.7655V78.7479ZM148.533 54.4617H162.75C166.414 54.4617 169.99 51.1931 170.632 47.6345C171.818 41.027 167.319 37.5387 161.221 37.24C157.056 37.0379 152.716 37.4069 148.542 37.24V54.4617H148.533Z" fill="#4796D1"/>
<path d="M204.425 37.2488V51.2458H228.026C228.254 51.2458 229.142 51.6852 229.397 51.8345C232.076 53.3986 232.068 57.458 229.344 59.0044C229.186 59.0923 228.237 59.5052 228.166 59.5052H204.425V74.627H228.307C229.643 74.627 231.198 76.0943 231.663 77.2893C232.815 80.1977 230.732 82.8249 227.753 83.0357C218.448 83.6772 208.405 82.5349 199.021 83.0357C196.737 82.8952 195.085 81.3399 194.892 79.0466V32.9697C194.953 31.0894 196.376 29.4111 198.204 28.9982H228.579C232.279 29.7099 233.307 34.7182 229.968 36.6601C229.713 36.8095 228.825 37.2488 228.597 37.2488H204.434H204.425Z" fill="#4796D1"/>
<path d="M262.953 28.0492C268.181 27.7417 277.942 29.3848 281.817 33.1894C283.926 35.263 283.399 39.0412 280.719 40.3504C277.732 41.8178 275.842 39.6212 273.294 38.4789C268.444 36.3086 257.698 34.6304 255.106 40.7898C253.173 45.3939 256.872 47.4852 260.598 48.7856C271.581 52.6077 288.381 53.3019 285.912 69.891C283.381 86.8403 256.459 87.2884 246.302 78.1943C243.156 75.3738 244.791 70.4621 248.912 70.1634C251.126 69.9964 253.305 72.2019 255.264 73.1596C260.65 75.8131 273.013 77.5617 275.825 70.6027C278.338 64.3994 271.906 62.2818 267.346 60.9462C258.577 58.3893 245.687 56.9395 244.896 45.3061C244.167 34.5249 253.147 28.6379 262.944 28.058L262.953 28.0492Z" fill="#4796D1"/>
<path d="M386.395 72.3864L386.703 72.2106L402.009 31.5111C405.032 26.5731 412.342 29.2705 411.262 35.1576L394.4 78.0801C391.351 84.2746 382.758 84.7052 379.129 78.8621C373.11 64.2763 367.416 49.5149 361.74 34.7797C361.002 29.2354 367.996 26.7049 370.949 31.3178C376.247 44.937 381.334 58.6529 386.387 72.3776L386.395 72.3864Z" fill="#4796D1"/>
<path d="M463.74 78.4404V79.978C462.818 83.9583 458.117 85.6278 455.121 82.6404C453.24 80.0483 452.661 76.6127 451.281 73.7395L450.93 73.6692H426.573C425.405 75.9625 424.807 78.6337 423.744 80.9533C420.765 87.4642 411.671 83.0973 414.606 76.7182L430.984 35.1312C433.892 28.8049 442.881 28.3128 446.396 34.3844C447.002 35.43 447.415 36.6777 447.881 37.8023C453.24 50.7714 457.941 64.0215 463.292 76.9994L463.749 78.4316L463.74 78.4404ZM448.61 65.4274L438.804 39.6739L429.279 65.4274H448.61Z" fill="#33669A"/>
<path d="M485.118 31.0982C484.222 29.4287 481.402 28.9542 479.521 29.5517C477.834 30.035 476.947 31.3793 476.71 33.04C476.288 47.5906 476.683 62.2554 476.551 76.8412C476.367 80.1274 477.149 83.9759 481.516 83.6948C485.241 83.6596 486.05 80.224 485.892 77.342C485.892 63.4944 485.892 49.5852 485.892 35.7287C485.874 34.2086 485.909 32.504 485.171 31.2212L485.101 31.107L485.118 31.0982Z" fill="#33669A"/>
</svg>
